<svg class="main-svg" xmlns="http://www.w3.org/2000/svg" xmlns:xlink="http://www.w3.org/1999/xlink" width="1000" height="850" style="" viewBox="0 0 1000 850"><rect x="0" y="0" width="1000" height="850" style="fill: rgb(255, 255, 255); fill-opacity: 1;"/><defs id="defs-d34878"><g class="clips"><clipPath id="clipd34878xyplot" class="plotclip"><rect width="783" height="710"/></clipPath><clipPath class="axesclip" id="clipd34878x"><rect x="80" y="0" width="783" height="850"/></clipPath><clipPath class="axesclip" id="clipd34878y"><rect x="0" y="60" width="1000" height="710"/></clipPath><clipPath class="axesclip" id="clipd34878xy"><rect x="80" y="60" width="783" height="710"/></clipPath></g><g class="gradients"/></defs><g class="bglayer"><rect class="bg" x="80" y="60" width="783" height="710" style="fill: rgb(234, 234, 242); fill-opacity: 1; stroke-width: 0;"/></g><g class="layer-below"><g class="imagelayer"/><g class="shapelayer"/></g><g class="cartesianlayer"><g class="subplot xy"><g class="layer-subplot"><g class="shapelayer"/><g class="imagelayer"/></g><g class="gridlayer"><g class="x"><path class="xgrid crisp" transform="translate(96.81,0)" d="M0,60v710" style="stroke: rgb(255, 255, 255); stroke-opacity: 1; stroke-width: 1px;"/><path class="xgrid crisp" transform="translate(204.9,0)" d="M0,60v710" style="stroke: rgb(255, 255, 255); stroke-opacity: 1; stroke-width: 1px;"/><path class="xgrid crisp" transform="translate(314.18,0)" d="M0,60v710" style="stroke: rgb(255, 255, 255); stroke-opacity: 1; stroke-width: 1px;"/><path class="xgrid crisp" transform="translate(424.66,0)" d="M0,60v710" style="stroke: rgb(255, 255, 255); stroke-opacity: 1; stroke-width: 1px;"/><path class="xgrid crisp" transform="translate(535.15,0)" d="M0,60v710" style="stroke: rgb(255, 255, 255); stroke-opacity: 1; stroke-width: 1px;"/><path class="xgrid crisp" transform="translate(644.43,0)" d="M0,60v710" style="stroke: rgb(255, 255, 255); stroke-opacity: 1; stroke-width: 1px;"/><path class="xgrid crisp" transform="translate(753.72,0)" d="M0,60v710" style="stroke: rgb(255, 255, 255); stroke-opacity: 1; stroke-width: 1px;"/></g><g class="y"><path class="ygrid crisp" transform="translate(0,753.97)" d="M80,0h783" style="stroke: rgb(255, 255, 255); stroke-opacity: 1; stroke-width: 1px;"/><path class="ygrid crisp" transform="translate(0,654.21)" d="M80,0h783" style="stroke: rgb(255, 255, 255); stroke-opacity: 1; stroke-width: 1px;"/><path class="ygrid crisp" transform="translate(0,554.45)" d="M80,0h783" style="stroke: rgb(255, 255, 255); stroke-opacity: 1; stroke-width: 1px;"/><path class="ygrid crisp" transform="translate(0,454.69)" d="M80,0h783" style="stroke: rgb(255, 255, 255); stroke-opacity: 1; stroke-width: 1px;"/><path class="ygrid crisp" transform="translate(0,354.93)" d="M80,0h783" style="stroke: rgb(255, 255, 255); stroke-opacity: 1; stroke-width: 1px;"/><path class="ygrid crisp" transform="translate(0,255.17)" d="M80,0h783" style="stroke: rgb(255, 255, 255); stroke-opacity: 1; stroke-width: 1px;"/><path class="ygrid crisp" transform="translate(0,155.41)" d="M80,0h783" style="stroke: rgb(255, 255, 255); stroke-opacity: 1; stroke-width: 1px;"/></g></g><g class="zerolinelayer"/><path class="xlines-below"/><path class="ylines-below"/><g class="overlines-below"/><g class="xaxislayer-below"/><g class="yaxislayer-below"/><g class="overaxes-below"/><g class="plot" transform="translate(80, 60)" clip-path="url('#clipd34878xyplot')"><g class="scatterlayer mlayer"><g class="trace scatter trace35d71f" style="stroke-miterlimit: 2; opacity: 1;"><g class="fills"/><g class="errorbars"/><g class="lines"><path class="js-line" d="M0,294.93L1.2,203.65L2.4,204.82L3.6,204.51L4.8,200.45L6,202.95L7.21,203.32L8.41,206.7L9.61,202.18L10.81,200.26L12.01,192.71L13.21,204.96L14.41,200.32L15.61,206.55L16.81,198.49L19.21,175.51L20.42,168.36L21.62,194.01L22.82,156.31L26.42,131.78L27.62,59.95L28.82,60.73L30.02,35.68L31.22,53.92L32.42,41.93L33.63,44.25L34.83,60.97L36.03,180.76L37.23,178.32L38.43,228.33L39.63,233.19L40.83,240.75L42.03,197.77L43.23,261.67L44.43,270.55L45.63,268.69L46.84,220.25L48.04,228.25L49.24,207.3L50.44,157.06L51.64,162.49L52.84,172.34L54.04,170.89L55.24,160.98L56.44,134.23L57.64,163.33L58.85,160.08L60.05,178.19L61.25,141.37L62.45,176.44L63.65,185.16L64.85,200.8L66.05,201.09L67.25,209.25L68.45,211.95L70.85,196.09L72.06,222.71L74.46,229.11L75.66,229.14L76.86,232.47L78.06,231.39L79.26,214.54L80.46,223.88L81.66,215.84L82.86,216.43L84.06,216.22L85.27,210.44L86.47,211.92L87.67,210.7L88.87,214.56L90.07,225.21L91.27,221.53L92.47,227.88L93.67,241.79L94.87,241.04L96.07,247.51L97.27,249.16L98.48,259.23L99.68,256.27L100.88,261.93L102.08,257.98L103.28,261.79L104.48,253.91L105.68,249.74L106.88,261.06L109.28,276.55L110.48,268.34L111.69,270.87L112.89,268.83L114.09,278.46L115.29,272.81L116.49,267.53L117.69,272.42L118.89,273.02L120.09,264.99L122.49,284.66L123.69,275.24L124.9,284.72L126.1,280.91L127.3,281.61L128.5,285.9L129.7,284.17L130.9,276.16L133.3,283.92L134.5,290.45L135.7,315.88L136.9,320.75L138.11,324.58L139.31,325.63L140.51,315.19L141.71,315.58L145.31,318.52L146.51,323.39L147.71,326.21L148.91,312.44L150.12,304.99L151.32,307.8L152.52,304.98L153.72,295.8L154.92,296.75L156.12,296.34L158.52,276.3L159.72,269.92L160.92,267.18L162.12,282.09L164.53,263.1L165.73,263.4L166.93,267.47L168.13,263.79L170.53,251.19L171.73,258.78L172.93,266.53L174.13,265.57L176.54,259.66L177.74,257.72L178.94,257.55L180.14,258.64L181.34,256.31L182.54,258.92L183.74,259.17L184.94,254.77L186.14,271.05L187.34,270.75L189.75,241.65L190.95,231.67L192.15,234.16L193.35,225.06L194.55,211.06L195.75,212.41L196.95,189.98L198.15,185.61L200.55,223.95L201.75,265.98L202.96,274.95L204.16,277.84L205.36,283.49L206.56,302.27L207.76,292.8L208.96,294.75L211.36,363.49L212.56,357.24L213.76,343.86L214.96,351.07L216.17,371.55L217.37,372.44L218.57,374.91L219.77,384.53L220.97,335.12L222.17,317.63L223.37,322.52L224.57,353.6L225.77,340.92L226.97,315.28L228.17,322.85L229.38,320.37L231.78,343.64L232.98,340.22L234.18,331.12L235.38,337.01L236.58,341.16L237.78,358.26L240.18,360.17L241.38,365.01L242.59,362.44L243.79,364.88L244.99,362.03L246.19,371.28L247.39,373.27L248.59,369.15L250.99,351.65L252.19,352.27L253.39,357.02L254.6,358.62L257,380.59L258.2,371.95L259.4,373.47L260.6,376.92L263,364.47L264.2,372.04L265.4,366.92L266.6,357.8L267.81,352.35L269.01,358.03L270.21,359.09L271.41,358.52L272.61,358.79L273.81,364.52L276.21,347.56L277.41,347.06L278.61,346.62L279.81,339.72L281.02,329.54L282.22,329.95L283.42,319.08L284.62,296.56L285.82,298.27L287.02,280.42L288.22,242.06L289.42,230.8L290.62,226.33L291.82,205.7L293.02,202.9L294.23,192.31L295.43,200.97L296.63,192.26L300.23,229.93L301.43,232.91L302.63,231.11L303.83,231.48L305.03,236.08L306.23,234.47L308.64,255.43L309.84,252.89L311.04,268.24L312.24,250.7L313.44,245.98L314.64,244.93L315.84,240.52L317.04,231.25L318.24,217.3L319.44,215.18L320.65,209.3L321.85,198.1L323.05,193.71L324.25,175.67L325.45,171.67L326.65,199.55L329.05,255.57L330.25,269.1L331.45,281.22L332.65,285.52L335.06,323.5L336.26,318.39L337.46,316.96L338.66,311.77L339.86,314.19L341.06,318.83L343.46,324.97L344.66,318.73L345.87,318.14L347.07,311.46L348.27,311.76L349.47,311L350.67,310.22L351.87,308.23L354.27,307.95L355.47,309.27L356.67,305.36L357.87,292.55L360.28,282.76L361.48,280.81L362.68,262.17L363.88,258.08L368.68,230.44L369.88,237.69L371.08,232.86L372.29,235.08L374.69,271.35L375.89,296.14L377.09,309.73L378.29,306.93L379.49,329.18L380.69,323.36L381.89,328.14L383.09,325.95L384.29,328.23L385.5,320.65L387.9,330.72L389.1,353.41L391.5,371.13L392.7,374.21L395.1,383.34L396.3,377.44L397.5,371.67L398.71,353.05L401.11,325.38L402.31,331.16L403.51,332.56L404.71,311.69L405.91,286.07L407.11,289.38L408.31,287.78L409.51,280.98L410.71,285.82L411.92,246.57L414.32,222.15L415.52,231.86L416.72,230.8L417.92,228.44L419.12,231.55L420.32,225.76L423.92,210.1L425.13,214.61L426.33,264.39L427.53,237.76L429.93,201.24L431.13,139.38L433.53,120.02L434.73,143.33L435.93,127.23L437.13,87.59L438.34,51.69L439.54,43.26L440.74,35.5L441.94,42.18L443.14,130.67L444.34,73.81L446.74,214.41L447.94,200.73L449.14,223.73L450.35,228.78L451.55,241.72L452.75,274.79L453.95,276.85L455.15,289.73L456.35,285.83L457.55,259.79L458.75,253.82L459.95,252.79L461.15,254.47L462.35,253.52L463.56,257.11L464.76,265.07L465.96,276.95L467.16,278.64L469.56,270.97L470.76,278.71L471.96,293.47L473.16,292.21L474.36,297.68L475.56,290.58L476.77,291.68L477.97,289.41L480.37,325.64L481.57,333.71L482.77,351.15L483.97,337.56L485.17,336.51L486.37,332.87L487.57,333.15L488.77,320.35L491.18,287.84L492.38,278.36L493.58,283.41L494.78,281.08L495.98,274.5L497.18,278.83L499.58,297.02L500.78,294.83L504.39,335.55L505.59,342.81L509.19,355.02L510.39,358.8L511.59,359.58L512.79,358.33L513.99,367.79L515.19,367.88L516.4,378.25L517.6,369.25L520,357.61L521.2,355.87L523.6,339.46L524.8,338.54L526,326.18L527.2,337.94L528.4,330.67L529.61,344.48L532.01,389.33L533.21,385.91L534.41,395.55L535.61,415.19L536.81,460.71L538.01,458.64L539.21,469.42L540.41,454.54L541.62,461.17L542.82,449.37L545.22,416.88L546.42,400.37L547.62,395.49L548.82,371.06L551.22,425.41L552.42,432.6L553.62,426.09L554.83,434.46L557.23,448.19L558.43,450.1L559.63,454.53L560.83,452.99L562.03,460.36L563.23,457.92L565.63,471.53L566.83,502.83L568.04,532.32L569.24,581.09L570.44,598.41L571.64,627.56L572.84,631.77L574.04,627.55L575.24,629.54L576.44,628.93L578.84,654.94L580.04,653.82L581.25,673.01L582.45,674.5L583.65,668.81L584.85,656.59L586.05,599.8L587.25,581.9L588.45,589.15L589.65,564.38L590.85,562.29L592.05,547.58L593.25,542.19L594.46,514.74L595.66,511.92L596.86,498.33L598.06,475.68L599.26,467.68L601.66,404.41L602.86,366.67L604.06,343.61L605.26,339.23L606.46,343.15L607.67,340.44L608.87,342.14L610.07,351.52L612.47,352.64L613.67,361.35L614.87,362.61L616.07,360.02L617.27,361.47L618.47,348.47L619.67,330.46L620.88,329.74L622.08,322.66L623.28,320.48L625.68,305.67L626.88,268.13L629.28,290.89L630.48,299.45L631.68,308.63L632.88,307.72L635.29,298.63L636.49,288.02L638.89,291.88L640.09,276.62L641.29,273.03L642.49,254.75L643.69,261.73L644.89,262.08L647.3,269.48L648.5,266.44L649.7,267.83L650.9,271.88L653.3,285.35L654.5,295.16L656.9,299.96L658.1,313.57L660.51,334.05L661.71,325.06L662.91,326.33L664.11,321.58L665.31,318.76L666.51,330.05L668.91,309.11L670.11,308.17L672.52,295.38L673.72,301.35L674.92,301.97L676.12,301.38L677.32,307.95L678.52,321.34L679.72,334.91L680.92,330.62L682.12,369.59L683.32,368.07L684.52,361.85L685.73,385.12L686.93,394.1L688.13,389.49L689.33,382.38L690.53,381.94L691.73,381.75L692.93,375.12L694.13,376.48L695.33,379.55L696.53,378.15L697.73,368.16L698.94,332.17L700.14,326.13L701.34,328.53L702.54,316.6L703.74,327.12L704.94,308.15L707.34,274.23L708.54,290.34L709.74,265.86L710.94,284.32L712.15,261.76L713.35,274.27L715.75,260.33L716.95,265.06L718.15,265.1L719.35,270.13L720.55,266.82L721.75,259.62L722.95,260.18L724.15,255.37L726.56,245.28L727.76,228.91L730.16,219.27L731.36,219.7L732.56,244.55L733.76,236.43L736.16,221.05L737.37,221.74L738.57,221.37L739.77,228.82L742.17,200.1L743.37,180.9L746.97,150.05L748.17,143.99L749.37,142.12L750.58,128.57L751.78,129.19L752.98,128.3L757.78,160.47L758.98,163.12L760.18,161.9L761.38,163.68L762.58,162.07L763.79,190.61L764.99,192.07L766.19,184.01L767.39,210.45L768.59,205.09L769.79,199.5L770.99,203.22L772.19,210.61L773.39,228.61L774.59,229.81L775.79,213.82L777,204.85L778.2,205.9L779.4,193.36L780.6,196.92L783,174.6" style="vector-effect: non-scaling-stroke; fill: none; stroke: rgb(76, 114, 176); stroke-opacity: 1; stroke-width: 2px; opacity: 1;"/></g><g class="points"/><g class="text"/></g></g></g><g class="overplot"/><path class="xlines-above crisp" d="M79,770.5H863" style="fill: none; stroke-width: 1px; stroke: rgb(255, 255, 255); stroke-opacity: 1;"/><path class="ylines-above crisp" d="M79.5,60V770" style="fill: none; stroke-width: 1px; stroke: rgb(255, 255, 255); stroke-opacity: 1;"/><g class="overlines-above"/><g class="xaxislayer-above"><g class="xtick"><text text-anchor="middle" x="0" y="785.4" transform="translate(96.81,0)" style="font-family: 'Open Sans', verdana, arial, sans-serif; font-size: 12px; fill: rgb(36, 36, 36); fill-opacity: 1; white-space: pre;">Jan 2019</text></g><g class="xtick"><text text-anchor="middle" x="0" y="785.4" transform="translate(204.9,0)" style="font-family: 'Open Sans', verdana, arial, sans-serif; font-size: 12px; fill: rgb(36, 36, 36); fill-opacity: 1; white-space: pre;">Apr 2019</text></g><g class="xtick"><text text-anchor="middle" x="0" y="785.4" transform="translate(314.18,0)" style="font-family: 'Open Sans', verdana, arial, sans-serif; font-size: 12px; fill: rgb(36, 36, 36); fill-opacity: 1; white-space: pre;">Jul 2019</text></g><g class="xtick"><text text-anchor="middle" x="0" y="785.4" transform="translate(424.66,0)" style="font-family: 'Open Sans', verdana, arial, sans-serif; font-size: 12px; fill: rgb(36, 36, 36); fill-opacity: 1; white-space: pre;">Oct 2019</text></g><g class="xtick"><text text-anchor="middle" x="0" y="785.4" transform="translate(535.15,0)" style="font-family: 'Open Sans', verdana, arial, sans-serif; font-size: 12px; fill: rgb(36, 36, 36); fill-opacity: 1; white-space: pre;">Jan 2020</text></g><g class="xtick"><text text-anchor="middle" x="0" y="785.4" transform="translate(644.43,0)" style="font-family: 'Open Sans', verdana, arial, sans-serif; font-size: 12px; fill: rgb(36, 36, 36); fill-opacity: 1; white-space: pre;">Apr 2020</text></g><g class="xtick"><text text-anchor="middle" x="0" y="785.4" transform="translate(753.72,0)" style="font-family: 'Open Sans', verdana, arial, sans-serif; font-size: 12px; fill: rgb(36, 36, 36); fill-opacity: 1; white-space: pre;">Jul 2020</text></g></g><g class="yaxislayer-above"><g class="ytick"><text text-anchor="end" x="76.6" y="4.199999999999999" transform="translate(0,753.97)" style="font-family: 'Open Sans', verdana, arial, sans-serif; font-size: 12px; fill: rgb(36, 36, 36); fill-opacity: 1; white-space: pre;">0.96</text></g><g class="ytick"><text text-anchor="end" x="76.6" y="4.199999999999999" transform="translate(0,654.21)" style="font-family: 'Open Sans', verdana, arial, sans-serif; font-size: 12px; fill: rgb(36, 36, 36); fill-opacity: 1; white-space: pre;">0.97</text></g><g class="ytick"><text text-anchor="end" x="76.6" y="4.199999999999999" transform="translate(0,554.45)" style="font-family: 'Open Sans', verdana, arial, sans-serif; font-size: 12px; fill: rgb(36, 36, 36); fill-opacity: 1; white-space: pre;">0.98</text></g><g class="ytick"><text text-anchor="end" x="76.6" y="4.199999999999999" transform="translate(0,454.69)" style="font-family: 'Open Sans', verdana, arial, sans-serif; font-size: 12px; fill: rgb(36, 36, 36); fill-opacity: 1; white-space: pre;">0.99</text></g><g class="ytick"><text text-anchor="end" x="76.6" y="4.199999999999999" transform="translate(0,354.93)" style="font-family: 'Open Sans', verdana, arial, sans-serif; font-size: 12px; fill: rgb(36, 36, 36); fill-opacity: 1; white-space: pre;">1</text></g><g class="ytick"><text text-anchor="end" x="76.6" y="4.199999999999999" transform="translate(0,255.17)" style="font-family: 'Open Sans', verdana, arial, sans-serif; font-size: 12px; fill: rgb(36, 36, 36); fill-opacity: 1; white-space: pre;">1.01</text></g><g class="ytick"><text text-anchor="end" x="76.6" y="4.199999999999999" transform="translate(0,155.41)" style="font-family: 'Open Sans', verdana, arial, sans-serif; font-size: 12px; fill: rgb(36, 36, 36); fill-opacity: 1; white-space: pre;">1.02</text></g></g><g class="overaxes-above"/></g></g><g class="polarlayer"/><g class="ternarylayer"/><g class="geolayer"/><g class="funnelarealayer"/><g class="pielayer"/><g class="treemaplayer"/><g class="sunburstlayer"/><g class="glimages"/><defs id="topdefs-d34878"><g class="clips"/><clipPath id="legendd34878"><rect width="109" height="45" x="0" y="0"/></clipPath></defs><g class="layer-above"><g class="imagelayer"/><g class="shapelayer"/></g><g class="infolayer"><g class="legend" pointer-events="all" transform="translate(878.66, 60)"><rect class="bg" shape-rendering="crispEdges" style="stroke: rgb(68, 68, 68); stroke-opacity: 1; fill: rgb(255, 255, 255); fill-opacity: 1; stroke-width: 0px;" width="109" height="45" x="0" y="0"/><g class="scrollbox" transform="translate(0, 0)" clip-path="url('#legendd34878')"><text class="legendtitletext user-select-none" text-anchor="start" x="2" y="15.600000000000001" style="font-family: 'Open Sans', verdana, arial, sans-serif; font-size: 12px; fill: rgb(36, 36, 36); fill-opacity: 1; white-space: pre;">variable</text><g class="groups" transform="translate(0, 0)"><g class="traces" transform="translate(0, 30.1)" style="opacity: 1;"><text class="legendtext user-select-none" text-anchor="start" x="40" y="4.680000000000001" style="font-family: 'Open Sans', verdana, arial, sans-serif; font-size: 12px; fill: rgb(36, 36, 36); fill-opacity: 1; white-space: pre;">debt_price</text><g class="layers" style="opacity: 1;"><g class="legendfill"/><g class="legendlines"><path class="js-line" d="M5,0h30" style="fill: none; stroke: rgb(76, 114, 176); stroke-opacity: 1; stroke-width: 2px;"/></g><g class="legendsymbols"><g class="legendpoints"/></g></g><rect class="legendtoggle" pointer-events="all" x="0" y="-9.5" width="103.75" height="19" style="cursor: pointer; fill: rgb(0, 0, 0); fill-opacity: 0;"/></g></g></g><rect class="scrollbar" rx="20" ry="3" width="0" height="0" style="fill: rgb(128, 139, 164); fill-opacity: 1;" x="0" y="0"/></g><g class="g-gtitle"/><g class="g-xtitle"><text class="xtitle" x="471.5" y="812.70625" text-anchor="middle" style="font-family: 'Open Sans', verdana, arial, sans-serif; font-size: 14px; fill: rgb(36, 36, 36); opacity: 1; font-weight: normal; white-space: pre;">timestamp</text></g><g class="g-ytitle"><text class="ytitle" transform="rotate(-90,24.543750000000003,415)" x="24.543750000000003" y="415" text-anchor="middle" style="font-family: 'Open Sans', verdana, arial, sans-serif; font-size: 14px; fill: rgb(36, 36, 36); opacity: 1; font-weight: normal; white-space: pre;">value</text></g><g class="annotation" data-index="0" style="opacity: 1;"><g class="annotation-text-g" transform="rotate(0,471.5,50.5)"><g class="cursor-pointer" transform="translate(441, 41)"><rect class="bg" x="0.5" y="0.5" width="60" height="18" style="stroke-width: 1px; stroke: rgb(0, 0, 0); stroke-opacity: 0; fill: rgb(0, 0, 0); fill-opacity: 0;"/><text class="annotation-text" text-anchor="middle" x="30.453125" y="14" style="font-family: 'Open Sans', verdana, arial, sans-serif; font-size: 12px; fill: rgb(36, 36, 36); fill-opacity: 1; white-space: pre;">subset=0</text></g></g></g></g></svg>