<svg class="main-svg" xmlns="http://www.w3.org/2000/svg" xmlns:xlink="http://www.w3.org/1999/xlink" width="1000" height="850" style="" viewBox="0 0 1000 850"><rect x="0" y="0" width="1000" height="850" style="fill: rgb(255, 255, 255); fill-opacity: 1;"/><defs id="defs-59c187"><g class="clips"><clipPath id="clip59c187xyplot" class="plotclip"><rect width="783" height="710"/></clipPath><clipPath class="axesclip" id="clip59c187x"><rect x="80" y="0" width="783" height="850"/></clipPath><clipPath class="axesclip" id="clip59c187y"><rect x="0" y="60" width="1000" height="710"/></clipPath><clipPath class="axesclip" id="clip59c187xy"><rect x="80" y="60" width="783" height="710"/></clipPath></g><g class="gradients"/></defs><g class="bglayer"><rect class="bg" x="80" y="60" width="783" height="710" style="fill: rgb(234, 234, 242); fill-opacity: 1; stroke-width: 0;"/></g><g class="layer-below"><g class="imagelayer"/><g class="shapelayer"/></g><g class="cartesianlayer"><g class="subplot xy"><g class="layer-subplot"><g class="shapelayer"/><g class="imagelayer"/></g><g class="gridlayer"><g class="x"><path class="xgrid crisp" transform="translate(96.81,0)" d="M0,60v710" style="stroke: rgb(255, 255, 255); stroke-opacity: 1; stroke-width: 1px;"/><path class="xgrid crisp" transform="translate(204.9,0)" d="M0,60v710" style="stroke: rgb(255, 255, 255); stroke-opacity: 1; stroke-width: 1px;"/><path class="xgrid crisp" transform="translate(314.18,0)" d="M0,60v710" style="stroke: rgb(255, 255, 255); stroke-opacity: 1; stroke-width: 1px;"/><path class="xgrid crisp" transform="translate(424.66,0)" d="M0,60v710" style="stroke: rgb(255, 255, 255); stroke-opacity: 1; stroke-width: 1px;"/><path class="xgrid crisp" transform="translate(535.15,0)" d="M0,60v710" style="stroke: rgb(255, 255, 255); stroke-opacity: 1; stroke-width: 1px;"/><path class="xgrid crisp" transform="translate(644.43,0)" d="M0,60v710" style="stroke: rgb(255, 255, 255); stroke-opacity: 1; stroke-width: 1px;"/><path class="xgrid crisp" transform="translate(753.72,0)" d="M0,60v710" style="stroke: rgb(255, 255, 255); stroke-opacity: 1; stroke-width: 1px;"/></g><g class="y"><path class="ygrid crisp" transform="translate(0,764.63)" d="M80,0h783" style="stroke: rgb(255, 255, 255); stroke-opacity: 1; stroke-width: 1px;"/><path class="ygrid crisp" transform="translate(0,638.57)" d="M80,0h783" style="stroke: rgb(255, 255, 255); stroke-opacity: 1; stroke-width: 1px;"/><path class="ygrid crisp" transform="translate(0,512.5)" d="M80,0h783" style="stroke: rgb(255, 255, 255); stroke-opacity: 1; stroke-width: 1px;"/><path class="ygrid crisp" transform="translate(0,386.44)" d="M80,0h783" style="stroke: rgb(255, 255, 255); stroke-opacity: 1; stroke-width: 1px;"/><path class="ygrid crisp" transform="translate(0,260.37)" d="M80,0h783" style="stroke: rgb(255, 255, 255); stroke-opacity: 1; stroke-width: 1px;"/><path class="ygrid crisp" transform="translate(0,134.31)" d="M80,0h783" style="stroke: rgb(255, 255, 255); stroke-opacity: 1; stroke-width: 1px;"/></g></g><g class="zerolinelayer"/><path class="xlines-below"/><path class="ylines-below"/><g class="overlines-below"/><g class="xaxislayer-below"/><g class="yaxislayer-below"/><g class="overaxes-below"/><g class="plot" transform="translate(80, 60)" clip-path="url('#clip59c187xyplot')"><g class="scatterlayer mlayer"><g class="trace scatter traced78593" style="stroke-miterlimit: 2; opacity: 1;"><g class="fills"/><g class="errorbars"/><g class="lines"><path class="js-line" d="M0,326.44L1.2,303.37L2.4,303.67L3.6,303.59L4.8,302.56L8.41,304.14L9.61,303L10.81,302.51L12.01,300.61L13.21,303.7L14.41,302.53L15.61,304.1L16.81,302.06L19.21,296.26L20.42,294.45L21.62,300.93L22.82,291.41L26.42,285.21L27.62,267.05L28.82,267.25L30.02,260.92L31.22,265.53L32.42,262.5L33.63,263.08L34.83,267.31L36.03,297.58L37.23,296.97L38.43,309.61L39.63,310.84L40.83,312.75L42.03,301.88L43.23,318.03L44.43,320.28L45.63,319.81L46.84,307.56L48.04,309.59L49.24,304.29L50.44,291.59L51.64,292.97L52.84,295.46L54.04,295.09L55.24,292.58L56.44,285.82L57.64,293.18L58.85,292.36L60.05,44.8L61.25,35.5L62.45,44.36L63.65,46.57L64.85,50.52L66.05,50.59L68.45,53.34L69.65,50.96L70.85,49.33L72.06,56.06L76.86,58.52L78.06,58.25L79.26,53.99L80.46,56.35L81.66,54.32L82.86,54.47L84.06,54.42L85.27,52.96L88.87,54L90.07,56.69L91.27,55.76L92.47,57.36L93.67,60.88L94.87,60.69L98.48,65.29L99.68,64.54L100.88,65.97L102.08,64.97L103.28,65.93L104.48,63.94L105.68,62.89L106.88,65.75L109.28,69.67L110.48,67.59L111.69,68.23L112.89,67.71L114.09,70.15L115.29,68.72L116.49,67.39L117.69,68.62L118.89,68.77L120.09,66.74L122.49,71.71L123.69,69.33L124.9,71.73L126.1,70.77L127.3,70.94L128.5,72.03L129.7,71.59L130.9,69.57L134.5,73.18L135.7,79.61L138.11,81.8L139.31,82.07L140.51,79.43L141.71,79.53L145.31,80.27L146.51,81.5L147.71,82.22L148.91,78.73L150.12,76.85L151.32,77.56L152.52,76.85L153.72,74.53L156.12,74.67L157.32,71.6L159.72,67.99L160.92,67.3L162.12,71.07L163.33,68.26L164.53,66.27L165.73,66.34L166.93,67.37L168.13,66.44L170.53,63.26L171.73,65.17L172.93,67.13L174.13,66.89L177.74,64.91L178.94,64.86L180.14,65.14L181.34,64.55L183.74,65.27L184.94,64.16L186.14,68.27L187.34,68.2L189.75,60.85L190.95,58.32L192.15,58.95L193.35,56.65L194.55,53.11L195.75,53.45L196.95,47.78L198.15,46.68L200.55,56.37L201.75,66.99L204.16,69.99L205.36,71.42L206.56,76.16L207.76,73.77L208.96,74.26L210.16,81.73L211.36,91.64L212.56,90.06L213.76,86.68L214.96,88.5L216.17,93.67L217.37,93.9L218.57,94.52L219.77,96.95L220.97,84.47L222.17,80.05L223.37,81.28L224.57,89.14L225.77,85.93L226.97,79.45L228.17,81.37L229.38,80.74L231.78,86.62L232.98,85.76L234.18,83.46L235.38,84.95L236.58,85.99L237.78,90.32L240.18,90.8L241.38,92.02L242.59,91.37L243.79,91.99L244.99,91.27L246.19,93.61L247.39,94.11L248.59,93.07L250.99,88.65L252.19,88.8L255.8,92.65L257,95.96L258.2,93.78L259.4,94.16L260.6,95.03L261.8,93.05L263,91.89L264.2,93.8L267.81,88.82L269.01,90.26L272.61,90.45L273.81,91.9L276.21,87.61L277.41,87.48L278.61,87.38L279.81,85.63L281.02,83.06L282.22,83.16L283.42,80.41L284.62,74.72L285.82,75.15L287.02,70.64L288.22,60.95L289.42,58.1L290.62,56.97L291.82,51.76L293.02,51.05L294.23,48.37L295.43,50.56L296.63,48.36L299.03,55.73L300.23,562.14L301.43,562.89L302.63,562.44L303.83,562.53L305.03,563.69L306.23,563.29L307.44,566.47L308.64,568.59L309.84,567.94L311.04,571.82L312.24,567.39L315.84,564.82L317.04,562.47L318.24,558.95L319.44,558.41L320.65,556.93L321.85,554.1L323.05,552.99L324.25,548.43L325.45,547.42L326.65,554.46L329.05,568.62L330.25,572.04L332.65,576.19L333.86,582.19L335.06,585.79L336.26,584.5L337.46,584.14L338.66,582.83L342.26,585.4L343.46,586.16L344.66,584.58L345.87,584.44L347.07,582.75L348.27,582.82L354.27,581.86L355.47,582.19L356.67,581.21L357.87,577.97L361.48,575L362.68,570.29L365.08,567.36L366.28,565.23L368.68,562.27L369.88,564.1L371.08,562.88L372.29,563.44L374.69,572.61L375.89,578.87L377.09,582.31L378.29,581.6L379.49,587.23L380.69,585.75L381.89,586.96L383.09,586.41L384.29,586.98L385.5,585.07L387.9,587.62L389.1,593.35L391.5,597.83L392.7,598.6L395.1,600.91L396.3,599.42L397.5,597.96L398.71,593.26L401.11,586.26L402.31,587.73L403.51,588.08L404.71,582.81L405.91,576.33L407.11,577.17L408.31,576.76L409.51,575.04L410.71,576.27L411.92,566.35L414.32,560.17L415.52,562.63L417.92,561.76L419.12,562.55L423.92,557.13L425.13,558.27L426.33,570.85L427.53,564.12L429.93,554.89L431.13,539.26L433.53,534.36L434.73,540.25L435.93,536.19L437.13,526.17L438.34,517.09L439.54,514.96L440.74,513L441.94,514.69L443.14,537.05L444.34,522.68L446.74,558.22L447.94,554.76L449.14,560.57L450.35,561.85L451.55,565.12L452.75,573.48L453.95,574L455.15,577.26L456.35,576.27L457.55,569.69L458.75,568.18L459.95,567.92L463.56,569.01L464.76,571.02L465.96,574.02L467.16,574.45L469.56,572.51L470.76,574.47L471.96,578.2L473.16,577.88L474.36,579.26L475.56,577.47L476.77,577.75L477.97,577.17L480.37,586.33L481.57,588.37L482.77,592.78L483.97,589.34L487.57,588.23L488.77,584.99L491.18,576.78L492.38,574.38L493.58,575.66L494.78,575.07L495.98,573.41L497.18,574.5L499.58,579.1L500.78,578.54L504.39,588.84L505.59,590.67L510.39,594.71L511.59,594.91L512.79,594.59L513.99,596.98L515.19,597.01L516.4,599.63L518.8,595.64L520,594.41L521.2,593.97L522.4,590.98L524.8,589.59L526,586.47L527.2,589.44L528.4,587.6L530.81,595.7L532.01,602.43L533.21,601.56L534.41,604L535.61,608.96L536.81,620.47L538.01,619.94L539.21,622.67L540.41,618.91L541.62,620.58L544.02,614.38L545.22,609.39L546.42,605.22L547.62,603.98L548.82,597.81L550.02,607.28L552.42,613.36L553.62,611.72L557.23,617.3L558.43,617.78L559.63,618.9L560.83,618.52L562.03,620.38L563.23,619.76L565.63,623.2L566.83,631.11L568.04,638.57L569.24,650.89L570.44,655.27L571.64,662.64L572.84,663.7L574.04,662.63L576.44,662.98L577.64,666.71L578.84,669.56L580.04,669.27L581.25,674.12L582.45,674.5L583.65,673.06L584.85,669.97L586.05,655.62L587.25,651.1L588.45,652.93L589.65,646.67L590.85,646.14L592.05,642.42L593.25,641.06L594.46,634.12L595.66,633.41L596.86,629.98L598.06,624.25L599.26,622.23L601.66,606.24L602.86,596.7L604.06,590.87L605.26,589.77L606.46,590.75L607.67,590.07L608.87,590.5L610.07,592.87L612.47,593.15L613.67,595.36L614.87,595.67L616.07,595.02L617.27,595.38L618.47,592.1L619.67,587.55L620.88,587.37L625.68,581.28L626.88,571.8L629.28,577.55L630.48,579.71L631.68,582.03L632.88,581.8L635.29,579.5L636.49,576.82L638.89,577.8L640.09,573.94L641.29,573.03L642.49,568.41L643.69,570.18L644.89,570.27L647.3,572.14L648.5,571.37L650.9,572.74L652.1,574.08L654.5,578.63L655.7,579.2L656.9,579.84L658.1,583.28L660.51,588.46L661.71,586.18L662.91,586.5L664.11,585.3L665.31,584.59L666.51,587.44L668.91,582.15L670.11,581.91L672.52,578.68L673.72,580.19L676.12,580.2L677.32,581.86L679.72,588.67L680.92,587.59L682.12,597.44L683.32,597.05L684.52,595.48L685.73,601.36L686.93,603.63L688.13,602.47L689.33,600.67L690.53,600.56L691.73,600.51L692.93,598.84L696.53,599.6L697.73,597.08L698.94,587.98L700.14,586.45L701.34,587.06L702.54,584.05L703.74,586.7L704.94,581.91L707.34,573.34L708.54,577.41L709.74,571.22L710.94,575.89L712.15,570.19L713.35,573.35L715.75,569.82L716.95,571.02L718.15,571.03L719.35,572.3L720.55,571.46L721.75,569.65L722.95,569.79L724.15,568.57L726.56,566.02L727.76,561.88L730.16,559.45L731.36,559.55L732.56,565.84L733.76,563.78L736.16,559.9L737.37,560.07L738.57,559.98L739.77,561.86L742.17,554.6L743.37,549.75L746.97,541.95L748.17,540.42L749.37,539.95L750.58,536.52L752.98,536.46L754.18,538.33L756.58,542.43L757.78,544.59L758.98,545.25L760.18,544.95L761.38,545.4L762.58,544.99L763.79,552.2L764.99,552.57L766.19,550.53L767.39,557.22L769.79,554.45L770.99,555.39L772.19,557.26L773.39,561.81L774.59,562.11L775.79,558.07L777,555.8L778.2,556.07L779.4,552.9L780.6,553.8L783,548.16" style="vector-effect: non-scaling-stroke; fill: none; stroke: rgb(76, 114, 176); stroke-opacity: 1; stroke-width: 2px; opacity: 1;"/></g><g class="points"/><g class="text"/></g></g></g><g class="overplot"/><path class="xlines-above crisp" d="M79,770.5H863" style="fill: none; stroke-width: 1px; stroke: rgb(255, 255, 255); stroke-opacity: 1;"/><path class="ylines-above crisp" d="M79.5,60V770" style="fill: none; stroke-width: 1px; stroke: rgb(255, 255, 255); stroke-opacity: 1;"/><g class="overlines-above"/><g class="xaxislayer-above"><g class="xtick"><text text-anchor="middle" x="0" y="785.4" transform="translate(96.81,0)" style="font-family: 'Open Sans', verdana, arial, sans-serif; font-size: 12px; fill: rgb(36, 36, 36); fill-opacity: 1; white-space: pre;">Jan 2019</text></g><g class="xtick"><text text-anchor="middle" x="0" y="785.4" transform="translate(204.9,0)" style="font-family: 'Open Sans', verdana, arial, sans-serif; font-size: 12px; fill: rgb(36, 36, 36); fill-opacity: 1; white-space: pre;">Apr 2019</text></g><g class="xtick"><text text-anchor="middle" x="0" y="785.4" transform="translate(314.18,0)" style="font-family: 'Open Sans', verdana, arial, sans-serif; font-size: 12px; fill: rgb(36, 36, 36); fill-opacity: 1; white-space: pre;">Jul 2019</text></g><g class="xtick"><text text-anchor="middle" x="0" y="785.4" transform="translate(424.66,0)" style="font-family: 'Open Sans', verdana, arial, sans-serif; font-size: 12px; fill: rgb(36, 36, 36); fill-opacity: 1; white-space: pre;">Oct 2019</text></g><g class="xtick"><text text-anchor="middle" x="0" y="785.4" transform="translate(535.15,0)" style="font-family: 'Open Sans', verdana, arial, sans-serif; font-size: 12px; fill: rgb(36, 36, 36); fill-opacity: 1; white-space: pre;">Jan 2020</text></g><g class="xtick"><text text-anchor="middle" x="0" y="785.4" transform="translate(644.43,0)" style="font-family: 'Open Sans', verdana, arial, sans-serif; font-size: 12px; fill: rgb(36, 36, 36); fill-opacity: 1; white-space: pre;">Apr 2020</text></g><g class="xtick"><text text-anchor="middle" x="0" y="785.4" transform="translate(753.72,0)" style="font-family: 'Open Sans', verdana, arial, sans-serif; font-size: 12px; fill: rgb(36, 36, 36); fill-opacity: 1; white-space: pre;">Jul 2020</text></g></g><g class="yaxislayer-above"><g class="ytick"><text text-anchor="end" x="76.6" y="4.199999999999999" transform="translate(0,764.63)" style="font-family: 'Open Sans', verdana, arial, sans-serif; font-size: 12px; fill: rgb(36, 36, 36); fill-opacity: 1; white-space: pre;">0.85</text></g><g class="ytick"><text text-anchor="end" x="76.6" y="4.199999999999999" transform="translate(0,638.57)" style="font-family: 'Open Sans', verdana, arial, sans-serif; font-size: 12px; fill: rgb(36, 36, 36); fill-opacity: 1; white-space: pre;">0.9</text></g><g class="ytick"><text text-anchor="end" x="76.6" y="4.199999999999999" transform="translate(0,512.5)" style="font-family: 'Open Sans', verdana, arial, sans-serif; font-size: 12px; fill: rgb(36, 36, 36); fill-opacity: 1; white-space: pre;">0.95</text></g><g class="ytick"><text text-anchor="end" x="76.6" y="4.199999999999999" transform="translate(0,386.44)" style="font-family: 'Open Sans', verdana, arial, sans-serif; font-size: 12px; fill: rgb(36, 36, 36); fill-opacity: 1; white-space: pre;">1</text></g><g class="ytick"><text text-anchor="end" x="76.6" y="4.199999999999999" transform="translate(0,260.37)" style="font-family: 'Open Sans', verdana, arial, sans-serif; font-size: 12px; fill: rgb(36, 36, 36); fill-opacity: 1; white-space: pre;">1.05</text></g><g class="ytick"><text text-anchor="end" x="76.6" y="4.199999999999999" transform="translate(0,134.31)" style="font-family: 'Open Sans', verdana, arial, sans-serif; font-size: 12px; fill: rgb(36, 36, 36); fill-opacity: 1; white-space: pre;">1.1</text></g></g><g class="overaxes-above"/></g></g><g class="polarlayer"/><g class="ternarylayer"/><g class="geolayer"/><g class="funnelarealayer"/><g class="pielayer"/><g class="treemaplayer"/><g class="sunburstlayer"/><g class="glimages"/><defs id="topdefs-59c187"><g class="clips"/><clipPath id="legend59c187"><rect width="109" height="45" x="0" y="0"/></clipPath></defs><g class="layer-above"><g class="imagelayer"/><g class="shapelayer"/></g><g class="infolayer"><g class="legend" pointer-events="all" transform="translate(878.66, 60)"><rect class="bg" shape-rendering="crispEdges" style="stroke: rgb(68, 68, 68); stroke-opacity: 1; fill: rgb(255, 255, 255); fill-opacity: 1; stroke-width: 0px;" width="109" height="45" x="0" y="0"/><g class="scrollbox" transform="translate(0, 0)" clip-path="url('#legend59c187')"><text class="legendtitletext user-select-none" text-anchor="start" x="2" y="15.600000000000001" style="font-family: 'Open Sans', verdana, arial, sans-serif; font-size: 12px; fill: rgb(36, 36, 36); fill-opacity: 1; white-space: pre;">variable</text><g class="groups" transform="translate(0, 0)"><g class="traces" transform="translate(0, 30.1)" style="opacity: 1;"><text class="legendtext user-select-none" text-anchor="start" x="40" y="4.680000000000001" style="font-family: 'Open Sans', verdana, arial, sans-serif; font-size: 12px; fill: rgb(36, 36, 36); fill-opacity: 1; white-space: pre;">debt_price</text><g class="layers" style="opacity: 1;"><g class="legendfill"/><g class="legendlines"><path class="js-line" d="M5,0h30" style="fill: none; stroke: rgb(76, 114, 176); stroke-opacity: 1; stroke-width: 2px;"/></g><g class="legendsymbols"><g class="legendpoints"/></g></g><rect class="legendtoggle" pointer-events="all" x="0" y="-9.5" width="103.75" height="19" style="cursor: pointer; fill: rgb(0, 0, 0); fill-opacity: 0;"/></g></g></g><rect class="scrollbar" rx="20" ry="3" width="0" height="0" style="fill: rgb(128, 139, 164); fill-opacity: 1;" x="0" y="0"/></g><g class="g-gtitle"/><g class="g-xtitle"><text class="xtitle" x="471.5" y="812.70625" text-anchor="middle" style="font-family: 'Open Sans', verdana, arial, sans-serif; font-size: 14px; fill: rgb(36, 36, 36); opacity: 1; font-weight: normal; white-space: pre;">timestamp</text></g><g class="g-ytitle"><text class="ytitle" transform="rotate(-90,24.543750000000003,415)" x="24.543750000000003" y="415" text-anchor="middle" style="font-family: 'Open Sans', verdana, arial, sans-serif; font-size: 14px; fill: rgb(36, 36, 36); opacity: 1; font-weight: normal; white-space: pre;">value</text></g><g class="annotation" data-index="0" style="opacity: 1;"><g class="annotation-text-g" transform="rotate(0,471.5,50.5)"><g class="cursor-pointer" transform="translate(441, 41)"><rect class="bg" x="0.5" y="0.5" width="60" height="18" style="stroke-width: 1px; stroke: rgb(0, 0, 0); stroke-opacity: 0; fill: rgb(0, 0, 0); fill-opacity: 0;"/><text class="annotation-text" text-anchor="middle" x="30.453125" y="14" style="font-family: 'Open Sans', verdana, arial, sans-serif; font-size: 12px; fill: rgb(36, 36, 36); fill-opacity: 1; white-space: pre;">subset=0</text></g></g></g></g></svg>